<?xml version="1.0" encoding="UTF-8" standalone="no"?>
<!DOCTYPE svg PUBLIC "-//W3C//DTD SVG 1.1//EN" "http://www.w3.org/Graphics/SVG/1.1/DTD/svg11.dtd">
<svg xmlns="http://www.w3.org/2000/svg" version="1.1" viewBox="0.00 0.00 505.00 494.00">
<path fill="#3f5b4d" d="
  M 275.77 116.00
  L 270.23 126.75
  Q 269.64 127.89 268.47 127.34
  L 264.84 125.64
  Q 263.53 125.02 264.18 123.73
  L 269.19 113.83
  A 3.51 3.50 43.3 0 0 269.09 110.50
  C 263.43 100.77 264.18 86.86 268.08 76.60
  C 272.84 64.10 282.33 54.44 293.26 46.78
  Q 302.22 40.50 311.28 35.90
  A 2.26 2.25 62.5 0 1 314.29 36.85
  Q 314.90 38.00 315.03 39.33
  Q 316.16 51.28 315.92 64.22
  C 315.55 83.65 308.42 99.91 292.02 110.71
  C 287.23 113.86 282.72 115.01 277.27 115.08
  A 1.71 1.70 13.3 0 0 275.77 116.00
  Z
  M 290.99 62.14
  Q 292.38 64.33 293.17 67.63
  A 0.65 0.65 0.0 0 0 294.26 67.94
  Q 294.74 67.47 294.97 66.85
  Q 297.04 61.27 300.55 56.94
  A 1.09 1.08 -39.2 0 1 302.36 57.12
  Q 302.97 58.30 302.54 59.56
  Q 300.74 64.88 298.21 69.68
  Q 297.33 71.34 299.03 70.54
  Q 302.57 68.87 306.92 68.49
  A 0.67 0.66 -1.5 0 0 307.53 67.85
  Q 307.87 58.19 307.27 49.71
  A 0.91 0.91 0.0 0 0 305.88 49.00
  Q 298.19 53.83 290.78 59.36
  Q 276.23 70.23 273.14 87.53
  Q 271.88 94.55 273.61 101.55
  Q 274.41 104.82 276.16 101.93
  C 278.27 98.44 277.47 93.49 276.88 89.54
  Q 276.25 85.31 277.72 81.60
  A 0.39 0.38 32.9 0 1 278.35 81.47
  Q 279.29 82.41 279.45 83.78
  Q 279.91 87.80 280.79 91.62
  A 0.43 0.42 58.1 0 0 281.54 91.80
  C 284.04 88.68 284.52 84.88 283.66 81.02
  Q 282.63 76.39 282.93 71.32
  A 0.75 0.75 0.0 0 1 284.13 70.77
  Q 284.93 71.37 285.12 72.43
  Q 285.77 76.01 286.42 79.56
  A 0.55 0.55 0.0 0 0 287.37 79.83
  C 292.22 74.46 289.19 68.77 289.66 62.47
  Q 289.82 60.30 290.99 62.14
  Z
  M 302.06 79.85
  Q 302.01 80.74 301.29 81.26
  Q 296.54 84.72 291.58 87.08
  C 288.54 88.53 287.00 91.29 286.21 94.45
  A 0.49 0.48 82.9 0 0 286.91 95.00
  Q 290.85 92.86 295.08 90.78
  Q 295.64 90.50 296.23 90.63
  A 0.80 0.79 31.7 0 1 296.56 92.02
  C 293.46 94.58 289.93 97.18 286.29 98.99
  C 284.38 99.95 280.59 103.27 280.44 105.84
  A 0.72 0.71 84.9 0 0 281.32 106.58
  Q 284.86 105.75 288.03 103.71
  C 299.95 96.05 305.32 84.91 307.35 71.19
  Q 307.45 70.54 306.79 70.52
  C 304.66 70.47 299.26 74.00 297.22 75.30
  Q 293.69 77.55 292.81 81.46
  A 0.70 0.69 -4.2 0 0 293.74 82.26
  L 301.30 79.30
  Q 302.11 78.99 302.06 79.85
  Z"
/>
<path fill="#3f5b4d" d="
  M 223.83 115.15
  L 228.63 123.85
  Q 229.34 125.13 228.00 125.72
  L 224.38 127.31
  Q 222.98 127.93 222.24 126.59
  L 217.68 118.41
  A 1.96 1.94 -14.2 0 0 215.99 117.41
  Q 207.27 117.41 200.66 113.02
  Q 187.27 104.13 181.39 90.47
  Q 177.80 82.12 176.72 70.86
  Q 175.21 55.13 177.49 40.10
  A 1.40 1.39 -78.2 0 1 179.22 38.96
  Q 181.76 39.63 184.34 40.95
  Q 196.07 46.97 206.74 55.52
  Q 215.50 62.53 220.43 70.29
  C 228.15 82.43 231.73 100.95 223.86 113.81
  A 1.35 1.34 46.4 0 0 223.83 115.15
  Z
  M 215.62 84.56
  Q 216.19 92.05 215.84 99.53
  C 215.73 102.01 216.57 104.16 218.62 105.62
  A 0.34 0.34 0.0 0 0 219.15 105.44
  Q 221.66 97.16 219.57 88.55
  C 216.90 77.51 211.97 70.15 203.28 63.45
  Q 194.79 56.91 186.12 52.24
  A 0.72 0.72 0.0 0 0 185.06 52.83
  Q 184.52 61.59 185.04 71.02
  Q 185.07 71.58 185.63 71.62
  Q 189.81 71.92 193.53 73.52
  Q 195.52 74.37 194.38 72.53
  Q 191.00 67.07 189.35 61.10
  A 1.08 1.08 0.0 0 1 190.51 59.74
  Q 192.24 59.94 193.24 61.53
  Q 195.91 65.84 198.32 70.85
  A 0.53 0.53 0.0 0 0 199.32 70.75
  C 199.75 69.04 200.19 65.73 201.86 64.77
  A 0.65 0.65 0.0 0 1 202.83 65.26
  C 203.57 71.54 200.27 77.44 205.77 82.54
  A 0.51 0.51 0.0 0 0 206.62 82.23
  Q 207.05 78.71 207.27 75.49
  Q 207.34 74.43 208.13 73.66
  Q 208.27 73.52 208.44 73.43
  Q 209.39 72.91 209.49 73.99
  Q 209.86 78.39 209.20 82.47
  C 208.51 86.77 208.36 90.88 211.28 94.39
  A 0.51 0.50 -58.9 0 0 212.16 94.17
  Q 213.14 89.58 214.04 84.92
  Q 214.19 84.17 214.94 84.03
  Q 215.57 83.91 215.62 84.56
  Z
  M 197.17 93.47
  Q 201.57 94.95 205.53 97.59
  Q 207.37 98.82 206.88 96.66
  C 206.19 93.56 203.66 90.72 200.63 89.41
  C 197.95 88.26 191.92 85.40 190.40 82.85
  A 0.54 0.54 0.0 0 1 191.00 82.05
  Q 195.25 83.15 199.43 85.33
  A 0.63 0.63 0.0 0 0 200.33 84.60
  Q 199.34 81.03 196.15 78.93
  Q 191.34 75.77 186.27 73.48
  A 0.51 0.51 0.0 0 0 185.55 74.00
  C 187.22 90.33 195.68 103.01 211.19 109.27
  Q 213.00 110.00 212.68 108.07
  Q 212.39 106.36 211.30 104.95
  Q 209.62 102.79 207.11 101.68
  Q 200.38 98.70 196.52 94.46
  Q 194.94 92.72 197.17 93.47
  Z"
/>
<path fill="#3f5b4d" d="
  M 300.69 148.55
  L 292.40 153.45
  Q 292.22 153.56 292.13 153.37
  L 289.41 147.31
  Q 289.34 147.14 289.50 147.05
  L 296.68 143.26
  A 2.46 2.45 -14.6 0 0 297.99 141.04
  C 297.90 134.91 299.88 129.27 303.20 124.12
  C 312.78 109.30 327.49 102.00 344.88 100.39
  Q 360.41 98.95 374.29 100.38
  A 1.21 1.21 0.0 0 1 375.33 101.92
  Q 374.10 106.12 371.99 110.28
  C 366.27 121.55 358.91 132.89 349.64 140.91
  Q 338.31 150.71 322.65 152.58
  Q 314.78 153.52 307.95 151.47
  C 305.73 150.81 303.84 149.70 301.85 148.54
  Q 301.26 148.21 300.69 148.55
  Z
  M 320.47 123.80
  Q 319.18 127.34 317.85 130.72
  A 0.45 0.44 -89.6 0 0 318.42 131.30
  C 321.41 130.19 323.67 127.94 324.79 124.91
  C 326.10 121.35 328.05 117.71 330.42 114.87
  Q 331.27 113.85 331.63 115.12
  Q 331.83 115.82 331.58 116.60
  Q 330.55 119.78 329.32 123.17
  Q 328.70 124.86 330.32 124.06
  C 332.96 122.76 335.62 120.94 336.80 118.07
  Q 338.57 113.75 341.43 110.65
  A 0.55 0.55 0.0 0 1 342.32 110.76
  Q 342.63 111.31 342.44 111.95
  Q 341.60 114.74 341.00 117.15
  Q 340.61 118.69 341.93 117.81
  Q 346.63 114.69 352.26 112.37
  Q 353.59 111.83 354.30 113.11
  Q 354.86 114.13 353.98 114.89
  Q 349.98 118.36 345.48 120.66
  Q 341.80 122.55 345.89 123.18
  Q 349.20 123.69 352.28 124.93
  Q 353.08 125.25 353.53 124.51
  L 362.15 110.14
  Q 363.43 108.01 360.94 107.98
  Q 353.91 107.89 346.85 108.88
  Q 343.35 109.37 340.39 109.40
  Q 337.20 109.44 334.40 110.26
  C 321.46 114.10 309.58 123.38 306.04 136.59
  A 0.40 0.40 0.0 0 0 306.42 137.09
  C 309.53 137.16 312.00 134.28 313.22 131.72
  Q 315.92 126.06 318.64 122.76
  Q 322.59 117.97 320.47 123.80
  Z
  M 341.36 132.93
  Q 334.99 133.67 328.67 132.72
  A 6.25 6.23 -56.9 0 0 324.42 133.62
  L 321.55 135.43
  Q 319.51 136.73 321.92 136.94
  L 330.56 137.70
  A 0.61 0.61 0.0 0 1 330.98 138.69
  C 328.77 141.40 320.31 140.53 317.19 140.16
  A 6.89 6.88 36.0 0 0 313.55 140.73
  Q 312.13 141.37 311.01 142.45
  Q 309.61 143.81 311.53 144.15
  Q 327.01 146.96 339.83 138.07
  Q 346.68 133.32 351.45 127.05
  A 0.44 0.44 0.0 0 0 351.15 126.34
  Q 345.00 125.64 338.89 126.03
  Q 335.65 126.23 332.93 128.49
  A 0.46 0.46 0.0 0 0 333.02 129.26
  C 335.75 130.61 338.86 130.25 341.59 131.64
  Q 343.62 132.67 341.36 132.93
  Z"
/>
<path fill="#3f5b4d" d="
  M 197.01 145.52
  L 202.49 148.68
  Q 202.75 148.83 202.64 149.11
  L 200.49 154.59
  A 0.38 0.37 -68.8 0 1 200.02 154.81
  Q 197.20 153.78 194.96 152.23
  A 3.29 3.28 46.0 0 0 191.34 152.16
  Q 183.73 156.94 173.30 156.17
  C 157.93 155.04 145.57 148.06 135.82 136.27
  Q 124.47 122.55 118.12 107.46
  A 1.97 1.96 -21.7 0 1 119.24 104.86
  Q 121.83 103.89 124.75 103.83
  Q 134.38 103.66 144.50 103.84
  Q 161.12 104.15 174.92 112.21
  C 183.57 117.27 189.58 124.32 193.89 133.23
  Q 196.07 137.73 196.29 144.33
  Q 196.32 145.13 197.01 145.52
  Z
  M 172.75 125.96
  Q 171.53 122.62 174.00 125.18
  Q 177.44 128.75 180.24 134.22
  C 181.40 136.48 184.54 140.75 187.33 140.74
  A 0.74 0.74 0.0 0 0 188.04 139.78
  C 183.07 124.06 167.24 113.31 151.03 113.16
  Q 147.82 113.13 144.58 112.85
  Q 139.38 112.42 132.50 112.81
  A 1.18 1.18 0.0 0 0 131.56 114.59
  Q 135.46 121.06 139.42 127.23
  Q 140.20 128.45 141.33 129.50
  Q 141.72 129.86 142.03 129.44
  C 143.58 127.36 146.80 127.52 149.10 127.33
  Q 149.99 127.25 149.79 126.36
  A 2.08 2.08 0.0 0 0 148.71 124.98
  Q 143.41 122.26 139.32 118.64
  A 1.27 1.27 0.0 0 1 140.10 116.43
  Q 142.21 116.31 144.13 117.37
  Q 148.28 119.64 152.32 121.92
  A 0.50 0.50 0.0 0 0 153.04 121.32
  L 151.01 115.28
  A 0.52 0.52 0.0 0 1 151.36 114.62
  L 151.65 114.54
  A 1.26 1.25 68.5 0 1 153.13 115.19
  C 155.65 120.38 157.82 125.53 163.37 127.96
  A 0.91 0.90 -61.4 0 0 164.48 127.63
  Q 164.73 127.27 164.54 126.88
  Q 162.71 122.95 161.45 118.68
  A 0.56 0.56 0.0 0 1 161.97 117.97
  Q 162.65 117.95 163.07 118.48
  Q 166.52 122.84 168.26 127.61
  C 169.37 130.67 171.87 133.26 174.83 134.59
  Q 177.14 135.62 175.99 133.37
  Q 174.12 129.69 172.75 125.96
  Z
  M 153.93 134.91
  L 160.77 133.00
  A 0.42 0.42 0.0 0 0 160.93 132.27
  C 158.35 130.08 155.83 129.63 152.18 129.81
  Q 147.54 130.04 142.68 130.19
  A 0.37 0.37 0.0 0 0 142.38 130.77
  C 145.64 135.59 150.98 140.06 155.65 142.83
  Q 168.85 150.66 183.73 147.56
  A 0.95 0.94 -28.3 0 0 184.21 145.97
  C 181.29 143.02 177.51 142.83 173.61 143.48
  Q 168.48 144.33 163.52 142.93
  Q 162.74 142.72 162.78 141.94
  Q 162.81 141.33 163.42 141.28
  L 172.22 140.62
  Q 174.40 140.46 172.74 139.04
  Q 171.34 137.85 169.69 137.05
  Q 167.40 135.95 164.89 136.34
  Q 158.96 137.27 154.10 136.82
  Q 148.88 136.33 153.93 134.91
  Z"
/>
<path fill="#3f5b4d" d="
  M 303.82 184.35
  C 305.27 182.67 306.49 180.77 308.05 179.26
  Q 312.10 175.34 317.51 172.81
  Q 334.63 164.82 352.43 169.96
  C 364.94 173.56 376.45 180.43 387.29 188.34
  C 388.81 189.45 392.52 192.02 389.73 193.94
  Q 371.13 206.78 352.24 211.02
  Q 336.60 214.54 321.67 208.41
  Q 312.28 204.56 307.35 198.54
  C 305.85 196.69 304.80 194.64 303.49 192.69
  Q 303.21 192.27 302.70 192.23
  L 292.22 191.59
  Q 290.96 191.51 291.41 190.34
  L 293.10 185.85
  Q 293.56 184.64 294.84 184.81
  Q 299.07 185.34 302.96 184.82
  Q 303.48 184.75 303.82 184.35
  Z
  M 346.86 179.93
  Q 346.85 181.01 345.98 181.74
  Q 342.97 184.28 339.78 186.30
  Q 339.53 186.46 339.42 186.74
  Q 339.23 187.23 339.74 187.36
  Q 344.47 188.53 348.53 186.26
  Q 352.22 184.18 356.48 182.02
  A 0.75 0.75 0.0 0 1 357.52 182.41
  Q 357.83 183.17 357.33 183.63
  Q 354.77 185.98 352.56 187.66
  Q 351.92 188.14 352.72 188.18
  Q 358.49 188.48 364.30 188.82
  Q 366.14 188.92 367.02 190.57
  Q 367.14 190.80 367.09 191.06
  Q 366.83 192.40 365.46 192.43
  L 352.74 192.74
  A 0.22 0.22 0.0 0 0 352.60 193.12
  Q 356.10 196.15 358.21 199.76
  A 0.89 0.87 -25.3 0 0 359.28 200.13
  Q 367.92 196.89 375.73 191.92
  A 0.55 0.55 0.0 0 0 375.74 191.00
  Q 366.07 184.61 356.56 180.07
  Q 338.12 171.29 320.00 180.13
  Q 315.90 182.12 313.29 185.74
  A 0.33 0.33 0.0 0 0 313.46 186.25
  C 316.86 187.31 320.02 186.08 322.97 184.11
  Q 328.26 180.59 334.07 179.21
  Q 334.57 179.09 334.75 179.57
  Q 334.96 180.13 334.46 180.47
  Q 330.44 183.17 326.27 185.86
  A 0.44 0.44 0.0 0 0 326.40 186.65
  C 330.27 187.63 333.50 187.18 336.65 184.63
  Q 340.79 181.29 346.22 179.47
  Q 346.86 179.25 346.86 179.93
  Z
  M 334.12 200.36
  A 0.35 0.35 0.0 0 1 333.65 200.76
  Q 327.01 198.21 322.64 194.53
  Q 318.84 191.33 313.38 192.08
  A 0.56 0.55 -12.2 0 0 312.92 192.78
  Q 313.01 193.13 313.26 193.39
  C 319.75 200.39 327.43 203.13 336.86 204.13
  Q 346.12 205.11 356.25 201.42
  Q 357.46 200.97 356.45 200.19
  Q 352.78 197.34 348.36 194.41
  C 345.62 192.59 342.84 191.99 339.66 192.62
  A 0.26 0.26 0.0 0 0 339.53 193.06
  Q 342.65 196.05 345.96 199.17
  Q 346.28 199.47 346.40 199.86
  Q 346.52 200.28 346.36 200.70
  A 0.58 0.57 23.4 0 1 345.56 201.01
  Q 339.97 198.18 335.04 193.92
  Q 333.08 192.23 330.48 192.24
  L 327.04 192.25
  Q 324.75 192.26 326.57 193.64
  Q 330.00 196.22 333.28 198.81
  C 333.81 199.23 333.99 199.73 334.12 200.36
  Z"
/>
<path fill="#3f5b4d" d="
  M 138.55 214.03
  C 128.02 211.00 117.54 206.24 108.34 200.68
  Q 106.33 199.47 104.64 197.37
  Q 104.32 196.98 104.62 196.56
  Q 105.87 194.84 107.66 193.47
  Q 118.54 185.20 129.63 179.24
  C 145.97 170.46 165.24 169.02 181.38 178.17
  C 185.39 180.44 188.72 183.78 191.38 187.49
  A 1.76 1.73 69.6 0 0 192.94 188.22
  L 200.08 187.66
  Q 200.40 187.64 200.53 187.92
  L 203.19 193.59
  Q 203.32 193.87 203.01 193.92
  Q 198.78 194.57 194.26 194.74
  C 192.73 194.79 191.57 195.64 190.92 197.00
  Q 187.65 203.83 180.90 208.11
  Q 161.29 220.56 138.55 214.03
  Z
  M 160.84 183.08
  Q 161.99 182.78 163.17 183.26
  Q 169.17 185.68 174.29 188.67
  C 176.44 189.94 179.01 190.40 181.42 189.63
  A 0.57 0.57 0.0 0 0 181.75 188.83
  Q 180.80 186.95 179.03 185.85
  Q 163.82 176.34 147.53 180.76
  Q 141.28 182.46 134.08 186.55
  Q 126.35 190.94 119.83 195.55
  A 0.89 0.89 0.0 0 0 119.96 197.08
  L 136.16 204.81
  A 0.45 0.45 0.0 0 0 136.73 204.64
  Q 138.83 201.10 141.97 198.07
  Q 143.81 196.29 141.26 196.57
  C 137.80 196.96 131.12 197.92 128.39 195.84
  A 0.82 0.82 0.0 0 1 128.43 194.51
  Q 129.88 193.53 131.92 193.28
  Q 137.38 192.61 142.11 192.32
  Q 143.57 192.23 142.38 191.37
  L 137.89 188.10
  Q 135.91 186.65 138.36 186.46
  Q 139.99 186.33 141.70 187.42
  C 145.90 190.10 150.25 192.88 155.35 191.43
  A 0.60 0.59 -34.9 0 0 155.54 190.38
  Q 152.11 187.85 148.88 185.48
  C 148.31 185.06 147.85 184.20 148.20 183.51
  A 0.49 0.49 0.0 0 1 148.81 183.28
  Q 154.32 185.44 158.89 188.63
  C 161.82 190.68 165.34 191.20 168.72 190.31
  A 0.50 0.50 0.0 0 0 168.86 189.40
  L 160.65 184.24
  Q 159.39 183.44 160.84 183.08
  Z
  M 161.33 204.32
  Q 161.24 203.98 161.48 203.71
  Q 164.93 199.79 169.10 197.00
  Q 170.98 195.75 168.72 195.71
  L 165.37 195.65
  A 6.97 6.96 -64.9 0 0 160.68 197.35
  C 157.95 199.72 153.02 204.13 149.57 204.68
  Q 147.73 204.97 149.04 203.64
  L 155.64 196.92
  A 0.56 0.56 0.0 0 0 155.26 195.97
  Q 150.45 195.72 146.46 198.76
  Q 142.92 201.46 139.29 203.90
  A 1.15 1.14 -54.3 0 0 139.62 205.95
  C 154.76 210.16 169.38 208.89 180.92 197.91
  Q 181.81 197.07 182.39 195.88
  A 0.63 0.63 0.0 0 0 181.84 194.97
  C 178.55 194.88 175.40 195.68 172.87 197.85
  Q 167.91 202.10 161.72 204.51
  A 0.29 0.29 0.0 0 1 161.33 204.32
  Z"
/>
<path fill="#3f5b4d" d="
  M 281.67 222.55
  L 272.77 213.33
  Q 272.31 212.85 272.82 212.44
  L 277.35 208.81
  A 0.67 0.66 49.8 0 1 278.26 208.89
  Q 281.98 213.04 285.89 217.22
  Q 286.89 218.30 288.31 218.01
  C 305.45 214.61 322.68 225.51 331.82 239.50
  Q 337.32 247.92 340.85 259.74
  Q 344.36 271.49 346.31 283.23
  C 346.57 284.77 345.29 285.81 343.81 285.55
  Q 328.31 282.91 314.74 276.97
  C 299.50 270.29 288.05 260.70 282.56 244.38
  C 280.22 237.43 279.00 231.20 281.96 224.11
  A 1.44 1.43 -55.8 0 0 281.67 222.55
  Z
  M 313.06 236.27
  Q 308.64 236.45 303.78 235.08
  Q 301.51 234.44 302.90 236.34
  C 304.91 239.08 307.55 240.80 311.00 241.21
  Q 316.78 241.91 322.21 244.18
  A 0.72 0.71 19.7 0 1 322.62 245.04
  Q 322.49 245.46 321.75 245.50
  Q 317.02 245.73 312.23 244.78
  A 0.31 0.31 0.0 0 0 311.91 245.24
  C 314.00 248.65 316.46 250.52 320.47 251.27
  Q 324.63 252.06 327.96 253.54
  Q 328.37 253.73 328.21 254.14
  Q 327.88 254.98 326.97 254.87
  Q 323.97 254.53 321.24 254.99
  Q 320.36 255.14 321.01 255.75
  Q 325.92 260.27 329.64 265.47
  A 1.27 1.26 -21.4 0 1 328.77 267.46
  Q 327.19 267.67 325.93 266.57
  Q 321.64 262.84 318.04 258.62
  Q 317.03 257.44 317.01 258.99
  L 316.87 268.26
  Q 316.86 268.92 317.49 269.12
  L 334.36 274.32
  A 0.86 0.86 0.0 0 0 335.45 273.30
  Q 333.46 265.00 330.73 256.56
  Q 328.01 248.13 325.05 243.61
  C 319.21 234.67 309.36 227.13 298.73 225.38
  Q 296.25 224.97 293.82 225.40
  A 0.32 0.31 70.5 0 0 293.60 225.87
  Q 295.60 229.31 299.27 230.42
  C 304.03 231.87 309.02 232.72 313.29 235.39
  Q 314.60 236.20 313.06 236.27
  Z
  M 298.62 249.52
  Q 298.50 252.22 297.37 249.77
  Q 295.61 246.00 294.91 240.78
  C 294.32 236.42 292.98 232.57 289.15 230.06
  A 0.63 0.63 0.0 0 0 288.18 230.58
  Q 287.97 241.25 293.84 250.06
  Q 301.69 261.85 314.25 267.54
  A 0.71 0.71 0.0 0 0 315.22 266.67
  Q 313.97 262.82 313.69 259.58
  C 313.33 255.37 311.85 252.07 308.69 249.56
  A 0.55 0.55 0.0 0 0 307.80 249.99
  L 307.73 259.46
  A 0.50 0.49 3.1 0 1 307.18 259.95
  Q 306.70 259.90 306.54 259.46
  Q 304.52 253.70 303.94 247.39
  Q 303.71 244.88 302.17 242.88
  Q 300.75 241.02 299.01 239.91
  Q 297.36 238.85 297.79 240.76
  Q 298.81 245.39 298.62 249.52
  Z"
/>
<path fill="#3f5b4d" d="
  M 214.27 226.26
  C 214.39 227.71 215.16 228.96 215.43 230.39
  Q 216.65 236.90 215.20 242.74
  Q 209.56 265.44 189.12 276.77
  Q 172.11 286.19 152.55 289.50
  A 0.68 0.68 0.0 0 1 151.76 288.95
  Q 151.13 285.22 151.87 281.40
  C 154.39 268.32 156.94 256.25 163.40 244.99
  Q 174.06 226.39 194.75 220.79
  Q 201.74 218.89 207.82 220.61
  A 1.67 1.66 29.1 0 0 209.50 220.14
  L 217.37 211.70
  A 1.50 1.48 -50.0 0 1 219.36 211.52
  L 222.78 214.11
  Q 223.65 214.77 222.92 215.59
  L 214.81 224.68
  A 2.12 2.10 64.2 0 0 214.27 226.26
  Z
  M 174.83 249.02
  Q 172.67 248.45 174.68 247.48
  Q 179.85 244.98 185.59 244.15
  C 189.21 243.63 191.27 242.09 193.45 239.43
  Q 194.56 238.08 192.81 238.16
  Q 188.42 238.34 183.68 240.07
  Q 183.00 240.32 182.53 239.77
  L 182.29 239.48
  A 0.46 0.45 55.7 0 1 182.41 238.79
  Q 188.41 235.50 194.79 234.14
  C 198.14 233.43 200.80 231.67 202.19 228.46
  A 0.64 0.64 0.0 0 0 201.54 227.57
  C 184.89 229.25 171.54 241.69 166.68 257.61
  Q 164.14 265.94 162.09 274.83
  Q 161.81 276.08 161.81 277.32
  A 0.54 0.52 -6.2 0 0 162.46 277.83
  Q 171.77 275.75 180.01 271.62
  Q 182.26 270.49 184.54 269.55
  Q 187.71 268.25 190.87 265.88
  C 201.27 258.07 208.09 246.68 208.07 233.76
  A 0.87 0.87 0.0 0 0 206.70 233.05
  Q 202.63 235.87 202.14 240.58
  Q 201.51 246.64 198.93 253.57
  A 0.59 0.58 21.6 0 1 198.15 253.90
  Q 197.79 253.74 197.76 253.35
  Q 197.37 248.31 198.49 242.89
  Q 198.66 242.09 197.94 242.48
  Q 193.10 245.08 192.39 250.65
  C 191.85 254.91 191.72 258.99 189.65 262.91
  Q 189.32 263.54 189.04 262.89
  C 187.97 260.48 188.52 256.14 188.79 253.51
  A 0.68 0.68 0.0 0 0 187.67 252.92
  Q 184.94 255.18 184.05 258.77
  Q 182.85 263.64 181.92 268.95
  Q 181.81 269.60 181.26 269.94
  Q 180.66 270.32 179.99 269.88
  A 1.05 1.03 -74.0 0 1 179.53 269.03
  L 179.43 263.20
  Q 179.40 261.27 178.17 262.76
  Q 175.02 266.57 169.96 270.83
  Q 169.36 271.33 168.57 271.16
  A 1.31 1.31 0.0 0 1 167.57 269.59
  Q 168.02 267.62 169.19 266.18
  Q 171.92 262.80 175.47 259.37
  A 0.55 0.55 0.0 0 0 175.13 258.42
  Q 172.61 258.26 169.38 258.41
  Q 168.81 258.43 168.39 258.08
  A 0.67 0.67 0.0 0 1 168.54 256.96
  Q 171.76 255.52 175.14 254.92
  C 179.51 254.16 182.50 252.05 184.67 248.34
  A 0.44 0.43 6.8 0 0 184.17 247.71
  C 181.46 248.48 177.62 249.76 174.83 249.02
  Z"
/>
<circle fill="#3f5b4d" cx="204.29" cy="323.68" r="10.64"/>
<circle fill="#3f5b4d" cx="229.62" cy="323.66" r="10.62"/>
<circle fill="#3f5b4d" cx="279.99" cy="323.67" r="10.62"/>
<circle fill="#3f5b4d" cx="305.48" cy="323.67" r="10.61"/>
<circle fill="#3f5b4d" cx="444.93" cy="323.67" r="10.62"/>
<path fill="#3f5b4d" d="
  M 381.05 395.62
  Q 381.94 395.95 382.94 395.94
  Q 404.39 395.69 423.07 395.88
  Q 432.95 395.98 434.92 386.45
  C 436.18 380.35 437.77 366.16 429.96 363.05
  C 427.41 362.03 424.20 360.87 424.06 357.54
  C 423.73 349.78 433.07 345.72 439.57 345.32
  C 443.45 345.07 449.02 345.19 452.29 347.28
  C 457.31 350.51 459.29 358.87 459.26 364.38
  C 459.20 373.54 459.59 383.99 458.05 392.83
  C 455.64 406.57 445.86 418.93 431.26 419.52
  Q 425.21 419.76 418.72 419.76
  Q 274.16 419.83 139.94 419.45
  Q 137.20 419.44 134.36 419.26
  A 2.57 2.55 75.7 0 1 132.34 418.05
  Q 131.10 416.06 131.13 413.79
  Q 131.31 395.59 131.01 375.88
  Q 130.94 370.98 128.60 367.36
  C 124.58 361.13 117.59 365.40 117.46 371.19
  Q 117.17 384.67 117.45 403.99
  Q 117.57 412.01 116.47 416.28
  C 114.90 422.37 111.87 429.41 106.44 432.77
  Q 104.22 434.14 100.73 434.60
  Q 89.55 436.08 78.48 435.95
  Q 57.75 435.72 46.12 420.80
  Q 37.77 410.10 36.76 397.53
  Q 35.57 382.72 40.46 368.53
  C 43.39 360.00 50.15 350.82 60.51 354.95
  C 66.14 357.19 69.95 363.16 69.11 369.09
  Q 68.69 372.04 65.86 376.06
  C 61.58 382.13 59.23 389.10 60.06 396.80
  Q 60.79 403.56 66.04 408.03
  C 70.55 411.86 77.12 411.72 82.57 411.04
  C 87.13 410.48 90.12 404.93 91.21 401.00
  C 92.92 394.88 95.06 387.99 94.72 381.63
  Q 94.19 371.53 94.14 360.11
  C 94.10 349.78 101.17 343.60 111.06 342.61
  C 124.66 341.26 139.90 341.16 148.07 354.14
  Q 153.22 362.33 153.67 372.57
  Q 154.01 380.09 153.88 387.90
  C 153.82 391.91 155.07 395.94 159.93 395.90
  Q 176.96 395.75 193.31 395.88
  C 207.36 395.99 206.13 379.04 205.69 369.79
  C 205.44 364.63 199.02 363.91 200.71 358.32
  Q 202.67 351.82 208.48 348.68
  C 213.59 345.92 221.16 347.16 225.04 351.45
  Q 229.44 356.31 229.83 363.23
  Q 230.72 379.11 228.18 392.61
  C 227.73 394.96 230.44 395.97 232.26 395.95
  Q 248.93 395.74 266.96 395.81
  Q 273.18 395.83 275.53 394.29
  Q 279.49 391.70 280.64 386.65
  Q 282.48 378.54 281.42 366.94
  Q 281.36 366.35 280.94 365.92
  C 276.15 361.07 278.91 354.08 283.77 350.85
  Q 288.23 347.88 294.87 349.14
  Q 305.76 351.21 305.81 362.30
  C 305.86 372.25 306.35 382.29 303.84 392.20
  C 303.12 395.07 305.73 395.88 307.90 395.86
  Q 322.92 395.70 343.54 395.91
  C 349.98 395.98 355.02 393.47 356.42 386.72
  Q 357.68 380.64 357.75 373.27
  C 357.79 369.32 356.21 367.06 353.38 364.79
  Q 351.68 363.42 351.38 361.24
  C 350.43 354.39 355.47 349.81 361.95 349.35
  C 366.21 349.05 373.67 348.54 376.76 352.14
  Q 381.47 357.61 381.60 364.08
  Q 381.88 378.06 381.12 384.09
  Q 380.56 388.49 379.63 393.08
  A 2.23 2.23 0.0 0 0 381.05 395.62
  Z"
/>
<circle fill="#3f5b4d" cx="361.89" cy="440.91" r="10.63"/>
<circle fill="#3f5b4d" cx="77.07" cy="456.59" r="10.63"/>
<circle fill="#3f5b4d" cx="102.45" cy="456.60" r="10.64"/>
</svg>
