<svg width="28" height="26" viewBox="0 0 28 26" fill="none" xmlns="http://www.w3.org/2000/svg">
<path id="Vector" d="M14 4.67543L13.2967 5.35264C13.3879 5.44717 13.4971 5.52237 13.6179 5.57372C13.7388 5.62508 13.8687 5.65155 14 5.65155C14.1313 5.65155 14.2612 5.62508 14.3821 5.57372C14.5029 5.52237 14.6121 5.44717 14.7033 5.35264L14 4.67543ZM10.6478 21.3739C8.67349 19.8176 6.51554 18.2978 4.80298 16.3703C3.12558 14.4793 1.95349 12.2745 1.95349 9.41199H0C0 12.884 1.44558 15.5329 3.34307 17.6674C5.2054 19.7642 7.58084 21.4442 9.43795 22.908L10.6478 21.3739ZM1.95349 9.41199C1.95349 6.61199 3.53581 4.2626 5.69637 3.27413C7.79572 2.31432 10.6166 2.56827 13.2967 5.35264L14.7033 3.99953C11.5256 0.695527 7.83219 0.149853 4.88372 1.49776C2.00037 2.81702 0 5.88008 0 9.41199H1.95349ZM9.43795 22.908C10.106 23.4341 10.8223 23.9941 11.5477 24.4187C12.2731 24.8419 13.1014 25.1871 14 25.1871V23.2336C13.5963 23.2336 13.1222 23.0773 12.5336 22.7322C11.9436 22.3884 11.3328 21.9143 10.6478 21.3739L9.43795 22.908ZM18.562 22.908C20.4192 21.4429 22.7946 19.7655 24.6569 17.6674C26.5544 15.5316 28 12.884 28 9.41199H26.0465C26.0465 12.2745 24.8744 14.4793 23.197 16.3703C21.4845 18.2978 19.3265 19.8176 17.3522 21.3739L18.562 22.908ZM28 9.41199C28 5.88008 26.0009 2.81702 23.1163 1.49776C20.1678 0.149853 16.477 0.695527 13.2967 3.99822L14.7033 5.35264C17.3834 2.56957 20.2043 2.31432 22.3036 3.27413C24.4642 4.2626 26.0465 6.61069 26.0465 9.41199H28ZM17.3522 21.3739C16.6672 21.9143 16.0564 22.3884 15.4664 22.7322C14.8778 23.076 14.4037 23.2336 14 23.2336V25.1871C14.8986 25.1871 15.7269 24.8419 16.4523 24.4187C17.179 23.9941 17.894 23.4341 18.562 22.908L17.3522 21.3739Z" fill="black"/>
</svg>
