<svg width="30" height="27" viewBox="0 0 30 27" fill="none" xmlns="http://www.w3.org/2000/svg">
<path id="Vector" d="M13.9258 5.87528C11.3775 3.23501 8.78439 3.05629 6.90427 3.91587C4.92918 4.81954 3.45349 6.98629 3.45349 9.599C3.45349 12.3053 4.55503 14.3969 6.17675 16.2252L13.9258 5.87528ZM13.9258 5.87528C13.9294 5.87898 13.9329 5.88269 13.9365 5.8864L13.9367 5.88664L14.2832 6.24653L14.3462 6.18593C14.3712 6.19829 14.3966 6.20995 14.4223 6.22089L14.5002 6.03775L14.4223 6.2209C14.605 6.29854 14.8015 6.33856 15 6.33856C15.1985 6.33856 15.395 6.29854 15.5777 6.2209C15.6033 6.20998 15.6287 6.19835 15.6537 6.18602L15.7166 6.24662L16.0633 5.88664L16.0634 5.88649C16.0658 5.88404 16.0681 5.8816 16.0705 5.87915C18.62 3.23641 21.2147 3.05594 23.0956 3.91582L13.9258 5.87528ZM5.67569 1.2301C2.74516 2.57095 0.691926 5.59111 0.512742 9.099H0.5V9.599V10.099H0.509705C0.641783 13.4824 2.10674 16.0913 3.96938 18.1866C5.52387 19.9368 7.4324 21.406 9.07611 22.6714C9.42883 22.943 9.76935 23.2051 10.0916 23.4587C10.1039 23.4683 10.1162 23.478 10.1284 23.4877L10.1286 23.4878C10.1288 23.488 10.129 23.4882 10.1293 23.4883L10.521 23.7971L10.5218 23.7961C11.0801 24.2303 11.682 24.6784 12.2952 25.0372L12.2957 25.0376C12.9299 25.4076 13.6747 25.7426 14.5 25.8433V25.8741H15H15.5V25.8433C16.3253 25.7426 17.0701 25.4076 17.7043 25.0376L17.7045 25.0374C18.3189 24.6785 18.9203 24.2303 19.4782 23.7961L19.4791 23.7973L19.8714 23.4878L19.8717 23.4876C19.8957 23.4687 19.9198 23.4497 19.9439 23.4307C20.26 23.1822 20.5934 22.9255 20.9384 22.6599C22.5787 21.397 24.4809 19.9325 26.0309 18.1864C27.8933 16.09 29.3582 13.4823 29.4903 10.099H29.5V9.599V9.099H29.4873C29.3082 5.5912 27.2562 2.57095 24.3242 1.23007L24.3242 1.23004C21.4913 -0.0650336 18.0601 0.295543 14.9998 2.84627C11.9411 0.295376 8.50826 -0.0648236 5.67584 1.23004L5.67569 1.2301ZM10.7864 20.2585C9.1554 19.0007 7.52698 17.7448 6.17702 16.2255L23.0957 3.91587C25.0709 4.81957 26.5465 6.98504 26.5465 9.599C26.5465 12.3055 25.4448 14.3971 23.823 16.2255C22.473 17.7448 20.8446 19.0007 19.2136 20.2585C18.9542 20.4586 18.6947 20.6587 18.4362 20.86L18.4351 20.8586L18.0432 21.1678C18.043 21.1679 18.0428 21.168 18.0427 21.1682L18.0425 21.1683C18.01 21.194 17.9778 21.2194 17.9457 21.2446C17.2977 21.7548 16.743 22.1793 16.2147 22.4872L16.2142 22.4874C15.6602 22.8111 15.2766 22.9206 15 22.9206C14.7229 22.9206 14.3393 22.812 13.7865 22.4879L13.7853 22.4872C13.2572 22.1794 12.7028 21.7553 12.0552 21.2454C12.0229 21.2199 11.9903 21.1942 11.9575 21.1683L11.9573 21.1682C11.9568 21.1678 11.9563 21.1674 11.9558 21.167L11.5649 20.8586L11.5638 20.86C11.3053 20.6587 11.0458 20.4586 10.7864 20.2585Z" fill="#4B545A" stroke="#4B545A"/>
</svg>
