<?xml version="1.0" encoding="UTF-8" standalone="no"?>
<!DOCTYPE svg PUBLIC "-//W3C//DTD SVG 1.1//EN" "http://www.w3.org/Graphics/SVG/1.1/DTD/svg11.dtd">
<svg xmlns="http://www.w3.org/2000/svg" version="1.1" viewBox="0.00 0.00 504.00 494.00">
<path fill="#ffffff" d="
  M 269.21 126.97
  Q 268.63 128.05 267.53 127.53
  L 263.59 125.67
  Q 262.46 125.14 262.98 124.00
  Q 265.38 118.76 267.99 114.00
  C 268.59 112.92 268.36 111.03 267.70 109.94
  Q 264.92 105.28 264.28 99.56
  Q 262.49 83.48 269.97 69.99
  Q 275.20 60.55 284.33 52.81
  Q 295.92 42.98 309.64 36.11
  Q 313.00 34.43 313.77 37.87
  Q 314.69 41.93 314.85 47.13
  Q 315.28 60.96 314.71 70.62
  Q 314.48 74.43 313.07 79.98
  C 310.06 91.75 303.97 101.23 294.16 108.72
  C 289.27 112.44 283.67 115.37 277.40 115.01
  Q 275.44 114.90 274.52 116.73
  Q 271.94 121.89 269.21 126.97
  Z
  M 277.60 81.52
  C 279.26 83.67 278.62 86.08 279.26 88.51
  Q 279.66 90.01 279.98 91.58
  A 0.27 0.27 0.0 0 0 280.46 91.68
  Q 283.92 86.77 282.75 82.33
  C 281.84 78.85 281.73 75.05 281.76 71.44
  A 0.92 0.92 0.0 0 1 282.83 70.54
  Q 283.60 70.67 283.88 71.44
  Q 284.90 74.17 285.06 77.15
  Q 285.14 78.51 285.80 79.70
  A 0.28 0.28 0.0 0 0 286.25 79.75
  C 290.82 74.64 288.44 69.20 288.29 63.16
  Q 288.27 62.25 288.73 61.52
  Q 289.24 60.73 289.78 61.49
  Q 291.29 63.63 291.79 65.94
  Q 292.63 69.72 294.10 66.14
  C 295.45 62.86 297.25 58.81 300.06 56.48
  Q 300.54 56.09 301.00 56.50
  Q 302.33 57.70 301.77 59.38
  Q 300.14 64.29 297.35 69.77
  Q 296.82 70.80 297.90 70.36
  Q 301.59 68.84 305.78 68.25
  Q 306.27 68.18 306.29 67.69
  Q 306.68 58.49 306.05 49.64
  Q 305.97 48.50 305.00 49.10
  Q 298.98 52.80 291.89 57.93
  Q 284.92 62.98 280.83 68.21
  C 273.52 77.57 269.59 90.89 273.02 102.45
  A 0.87 0.87 0.0 0 0 274.60 102.66
  C 277.08 98.70 276.33 93.58 275.68 89.21
  C 275.31 86.72 275.81 84.22 276.37 81.79
  A 0.70 0.70 0.0 0 1 277.60 81.52
  Z
  M 301.07 79.57
  Q 301.30 80.70 300.37 81.37
  Q 295.70 84.75 291.66 86.65
  C 288.18 88.29 286.04 90.79 285.44 94.55
  A 0.29 0.29 0.0 0 0 285.86 94.85
  Q 290.58 92.28 294.71 90.38
  Q 295.48 90.03 295.82 90.78
  A 1.31 1.30 58.6 0 1 295.45 92.33
  Q 290.26 96.53 285.04 99.30
  Q 281.46 101.20 279.80 105.09
  Q 279.21 106.48 280.70 106.25
  C 281.51 106.12 282.32 106.02 283.07 105.65
  Q 298.05 98.38 303.58 82.35
  Q 305.38 77.14 306.18 71.59
  A 0.86 0.85 81.8 0 0 304.98 70.69
  Q 300.56 72.73 296.37 75.36
  Q 293.07 77.43 291.92 81.23
  A 0.68 0.68 0.0 0 0 292.40 82.08
  Q 292.81 82.19 293.20 82.00
  Q 296.36 80.49 300.41 79.19
  Q 300.96 79.01 301.07 79.57
  Z"
/>
<path fill="#ffffff" d="
  M 224.01 115.19
  L 228.85 123.91
  Q 229.51 125.10 228.27 125.68
  L 224.24 127.58
  Q 222.97 128.17 222.29 126.95
  L 217.49 118.38
  Q 217.15 117.78 216.47 117.74
  C 211.07 117.43 205.62 116.43 201.01 113.42
  Q 181.49 100.69 177.56 77.92
  Q 174.35 59.31 177.41 39.67
  A 0.74 0.73 1.5 0 1 178.06 39.06
  C 179.17 38.95 180.56 38.89 181.58 39.40
  Q 202.16 49.68 213.90 61.91
  Q 231.31 80.04 227.59 105.26
  Q 227.25 107.55 223.99 113.95
  Q 223.67 114.58 224.01 115.19
  Z
  M 202.34 64.58
  A 0.48 0.48 0.0 0 1 202.89 65.02
  Q 203.25 69.36 202.76 73.25
  C 202.30 76.77 203.12 79.83 205.74 82.30
  A 0.48 0.48 0.0 0 0 206.55 81.99
  L 207.22 75.17
  Q 207.32 74.20 208.06 73.56
  Q 208.23 73.41 208.41 73.28
  Q 209.46 72.55 209.62 73.81
  Q 210.22 78.42 209.24 83.40
  Q 207.93 90.02 211.32 94.20
  A 0.39 0.39 0.0 0 0 212.00 94.04
  Q 213.06 89.05 214.00 84.76
  Q 214.25 83.63 215.39 84.02
  A 0.82 0.80 9.7 0 1 215.94 84.78
  L 216.02 100.66
  Q 216.03 102.63 217.30 104.13
  L 217.72 104.62
  Q 218.96 106.09 219.39 104.21
  Q 221.07 96.85 219.74 90.06
  Q 218.76 85.06 216.60 79.95
  C 214.41 74.79 210.72 69.95 206.53 66.35
  Q 197.73 58.76 186.26 52.48
  A 0.87 0.86 -75.7 0 0 184.98 53.24
  L 184.99 70.71
  Q 184.99 71.35 185.63 71.43
  Q 190.35 71.95 193.66 73.36
  Q 195.08 73.96 194.27 72.65
  Q 191.15 67.65 189.19 61.29
  A 1.31 1.31 0.0 0 1 190.76 59.64
  Q 192.67 60.11 193.74 61.96
  Q 196.24 66.25 198.14 70.22
  Q 198.90 71.80 199.32 70.09
  C 199.74 68.38 200.25 64.87 202.34 64.58
  Z
  M 196.03 93.34
  A 0.55 0.55 0.0 0 1 196.75 93.02
  Q 201.55 94.92 205.79 97.49
  Q 207.32 98.41 206.79 96.71
  Q 205.21 91.62 200.70 89.64
  C 197.03 88.03 193.74 86.08 190.50 83.46
  A 0.83 0.83 0.0 0 1 190.62 82.09
  Q 191.17 81.79 191.80 82.00
  Q 195.65 83.28 199.32 85.08
  A 0.58 0.58 0.0 0 0 200.13 84.39
  Q 199.09 81.08 196.44 79.30
  Q 191.97 76.29 186.56 73.77
  Q 185.71 73.37 185.81 74.31
  Q 188.38 99.41 211.02 109.11
  Q 212.74 109.84 212.46 107.99
  Q 212.28 106.78 211.63 105.70
  Q 210.03 103.08 207.21 101.87
  Q 200.95 99.19 196.32 94.61
  Q 195.77 94.06 196.03 93.34
  Z"
/>
<path fill="#ffffff" d="
  M 371.16 110.23
  Q 363.77 124.92 354.39 135.50
  Q 340.99 150.62 321.00 152.81
  Q 309.64 154.06 300.94 148.86
  Q 300.20 148.41 299.45 148.85
  L 291.40 153.61
  Q 291.15 153.76 291.03 153.50
  L 288.20 147.26
  A 0.30 0.30 0.0 0 1 288.36 146.86
  C 290.73 145.82 297.05 143.34 296.97 140.37
  Q 296.75 132.27 302.00 124.17
  Q 311.21 109.96 326.53 104.11
  Q 334.28 101.16 343.59 100.26
  Q 359.13 98.76 373.33 100.26
  A 1.36 1.36 0.0 0 1 374.49 102.01
  Q 373.19 106.18 371.16 110.23
  Z
  M 320.51 121.45
  L 317.01 130.75
  A 0.29 0.29 0.0 0 0 317.37 131.13
  C 320.60 130.01 322.72 127.51 323.89 124.27
  Q 325.65 119.43 329.35 114.62
  A 0.87 0.87 0.0 0 1 330.90 115.00
  C 331.25 117.04 329.14 121.18 328.53 123.15
  Q 328.08 124.60 329.42 123.89
  C 331.92 122.58 334.40 120.89 335.59 118.15
  C 336.79 115.41 338.27 112.50 340.39 110.45
  Q 340.80 110.06 341.25 110.41
  Q 341.88 110.91 341.68 111.69
  Q 341.04 114.20 340.06 117.17
  Q 339.62 118.54 340.81 117.74
  Q 345.45 114.65 351.49 112.07
  Q 352.13 111.80 352.66 112.25
  Q 353.32 112.81 353.73 113.60
  Q 354.01 114.14 353.56 114.55
  Q 349.08 118.63 344.09 120.99
  Q 343.47 121.28 343.10 121.83
  A 0.67 0.66 19.1 0 0 343.61 122.87
  Q 347.51 123.13 351.33 124.84
  Q 351.97 125.13 352.33 124.53
  L 360.94 110.23
  Q 362.32 107.93 359.64 107.98
  Q 351.79 108.12 343.46 109.30
  C 340.14 109.78 336.89 109.44 333.68 110.34
  C 320.45 114.06 309.32 123.26 305.22 136.30
  A 0.61 0.61 0.0 0 0 305.95 137.08
  C 310.61 135.95 312.49 131.07 314.47 127.13
  C 315.46 125.17 316.93 123.47 318.20 121.65
  Q 319.01 120.48 320.20 120.83
  Q 320.69 120.97 320.51 121.45
  Z
  M 340.72 132.99
  C 335.80 133.78 331.65 133.25 326.83 132.83
  C 324.77 132.65 322.15 134.32 320.63 135.56
  Q 319.16 136.77 321.06 136.89
  L 329.42 137.41
  A 0.90 0.90 0.0 0 1 330.00 138.95
  C 327.45 141.52 320.12 140.87 316.94 140.37
  Q 314.63 140.01 312.48 140.95
  Q 311.16 141.52 310.13 142.55
  Q 309.00 143.69 310.58 143.99
  Q 316.95 145.22 323.29 144.26
  Q 329.68 143.29 335.16 140.17
  Q 343.78 135.27 350.06 127.30
  Q 350.64 126.57 349.71 126.45
  Q 344.32 125.74 338.77 126.02
  C 336.20 126.14 334.24 127.01 332.19 128.36
  A 0.44 0.43 -46.7 0 0 332.21 129.10
  Q 333.82 130.02 335.64 130.11
  Q 338.50 130.24 340.97 131.71
  Q 342.62 132.69 340.72 132.99
  Z"
/>
<path fill="#ffffff" d="
  M 197.15 145.42
  L 202.65 148.61
  Q 202.95 148.79 202.82 149.11
  L 200.55 154.73
  A 0.42 0.42 0.0 0 1 200.01 154.97
  Q 197.11 153.91 194.72 152.25
  C 193.57 151.45 192.13 151.91 191.01 152.51
  Q 185.21 155.65 182.61 155.93
  Q 165.41 157.78 151.49 149.89
  Q 142.95 145.05 136.01 136.76
  Q 125.18 123.80 118.24 108.24
  C 117.37 106.28 118.48 104.31 120.60 104.14
  Q 138.22 102.76 151.48 104.18
  Q 157.41 104.82 164.10 107.09
  Q 172.77 110.03 180.17 115.56
  C 186.14 120.02 191.23 126.95 194.24 133.66
  C 195.73 136.98 196.22 140.74 196.50 144.39
  A 1.33 1.30 -77.8 0 0 197.15 145.42
  Z
  M 140.04 116.20
  Q 141.70 115.88 143.98 117.13
  Q 148.10 119.38 152.32 121.74
  Q 153.22 122.25 152.88 121.27
  L 150.98 115.78
  A 0.79 0.77 44.3 0 1 150.97 115.34
  Q 151.31 114.16 151.87 114.26
  Q 153.05 114.46 153.53 115.56
  C 155.62 120.32 158.11 125.37 163.00 127.63
  Q 164.88 128.49 164.15 126.56
  L 161.21 118.79
  A 0.58 0.58 0.0 0 1 161.50 118.06
  Q 162.53 117.56 163.26 118.51
  Q 166.84 123.17 168.46 127.70
  C 169.53 130.70 172.08 133.16 174.89 134.46
  Q 176.71 135.29 175.87 133.47
  Q 173.94 129.27 172.12 124.99
  Q 171.99 124.70 172.12 124.41
  Q 172.28 124.07 172.65 124.01
  Q 173.08 123.95 173.38 124.26
  Q 177.47 128.49 180.15 133.75
  C 181.39 136.19 183.05 138.45 185.41 139.87
  Q 188.86 141.95 187.40 138.20
  C 182.03 124.41 169.17 115.28 154.86 113.53
  C 153.08 113.31 151.44 113.68 149.68 113.35
  Q 147.78 113.01 145.82 112.95
  Q 138.86 112.77 132.59 112.94
  A 1.06 1.05 -16.3 0 0 131.71 114.54
  Q 135.55 120.87 139.16 126.61
  Q 140.03 127.98 141.17 129.15
  Q 141.51 129.50 141.88 129.19
  Q 144.62 126.95 148.73 127.24
  Q 149.34 127.29 149.53 126.71
  Q 149.66 126.28 149.42 125.89
  Q 149.08 125.37 148.55 125.08
  Q 143.92 122.57 139.36 119.04
  A 1.61 1.60 58.6 0 1 140.04 116.20
  Z
  M 151.65 136.26
  Q 151.56 135.97 151.64 135.69
  Q 151.72 135.38 152.02 135.29
  L 160.49 132.91
  Q 161.25 132.69 160.63 132.19
  Q 157.68 129.81 153.79 129.89
  Q 148.47 130.01 143.38 130.28
  Q 142.19 130.35 142.92 131.29
  Q 152.09 143.08 166.04 147.11
  Q 169.74 148.18 173.86 148.18
  C 176.82 148.18 181.03 148.43 183.63 147.44
  A 0.95 0.94 55.4 0 0 183.92 145.85
  C 181.54 143.72 178.30 142.90 175.16 143.47
  C 171.43 144.16 166.96 144.32 163.41 142.99
  Q 162.92 142.81 162.71 142.33
  Q 162.51 141.88 162.79 141.45
  Q 163.08 141.01 163.61 141.02
  Q 168.27 141.12 172.76 140.25
  A 0.46 0.45 -28.4 0 0 172.99 139.48
  C 170.66 137.19 167.72 136.10 164.45 136.57
  Q 158.63 137.41 152.36 136.84
  A 0.82 0.82 0.0 0 1 151.65 136.26
  Z"
/>
<path fill="#ffffff" d="
  M 362.81 174.05
  Q 374.21 179.33 386.35 188.21
  Q 388.12 189.51 389.58 191.19
  A 1.69 1.69 0.0 0 1 389.29 193.67
  Q 376.35 202.93 361.24 208.33
  Q 350.07 212.33 340.25 212.44
  Q 332.93 212.53 326.18 210.48
  C 316.08 207.41 307.71 202.74 302.64 193.15
  A 1.72 1.71 77.3 0 0 301.19 192.23
  L 291.26 191.79
  Q 289.71 191.73 290.26 190.28
  L 291.92 185.94
  A 1.89 1.89 0.0 0 1 293.93 184.74
  C 296.41 185.06 301.72 185.86 303.42 183.43
  Q 307.84 177.08 314.83 173.50
  Q 329.84 165.81 345.89 168.55
  Q 353.88 169.92 362.81 174.05
  Z
  M 345.99 179.81
  Q 346.13 180.88 345.23 181.68
  Q 342.35 184.22 339.36 186.07
  Q 337.85 187.00 339.60 187.33
  C 345.02 188.33 349.09 185.34 353.44 182.77
  Q 354.81 181.96 356.33 182.06
  A 0.79 0.79 0.0 0 1 356.79 183.44
  L 352.14 187.49
  Q 351.45 188.09 352.36 188.09
  Q 358.08 188.09 363.43 188.74
  A 1.83 1.79 -27.1 0 1 364.07 188.94
  Q 367.31 190.59 365.36 192.35
  A 1.38 1.34 -65.8 0 1 364.48 192.70
  L 352.47 192.88
  Q 351.48 192.90 352.24 193.54
  Q 355.19 196.02 357.31 199.70
  A 0.73 0.73 0.0 0 0 358.19 200.02
  Q 367.22 196.60 374.68 191.79
  A 0.38 0.38 0.0 0 0 374.68 191.15
  Q 366.22 185.54 356.69 180.75
  Q 341.27 172.99 325.61 177.60
  Q 317.52 179.99 312.78 185.07
  A 0.72 0.72 0.0 0 0 313.20 186.27
  C 315.51 186.60 318.12 186.32 320.10 185.06
  C 324.20 182.45 328.16 180.29 332.91 179.01
  A 0.83 0.83 0.0 0 1 333.95 179.91
  Q 333.90 180.37 333.51 180.63
  Q 329.70 183.11 325.57 185.86
  A 0.41 0.41 0.0 0 0 325.69 186.59
  Q 331.13 188.19 335.58 184.49
  Q 338.71 181.88 345.04 179.26
  Q 345.88 178.91 345.99 179.81
  Z
  M 333.15 200.57
  Q 333.15 201.08 332.67 200.91
  Q 326.64 198.67 322.52 195.35
  C 319.62 193.02 316.46 191.51 312.67 192.07
  A 0.64 0.64 0.0 0 0 312.28 193.13
  Q 318.77 200.44 328.24 202.61
  Q 330.82 203.20 333.41 203.67
  C 340.52 204.95 348.42 203.84 355.15 201.28
  Q 356.08 200.92 355.30 200.31
  Q 351.06 196.99 346.53 194.07
  Q 343.53 192.13 339.21 192.77
  Q 338.47 192.88 339.02 193.38
  Q 342.03 196.18 345.18 199.14
  Q 346.16 200.06 345.25 200.97
  A 0.76 0.76 0.0 0 1 344.37 201.11
  Q 339.02 198.35 334.28 194.29
  C 331.68 192.06 328.64 192.16 325.46 192.48
  Q 324.48 192.57 325.26 193.18
  Q 328.69 195.83 332.12 198.49
  Q 333.14 199.27 333.15 200.57
  Z"
/>
<path fill="#ffffff" d="
  M 192.91 188.13
  L 200.27 187.50
  Q 200.48 187.48 200.57 187.67
  L 203.36 193.56
  Q 203.48 193.83 203.20 193.90
  Q 198.76 194.95 194.36 194.88
  Q 192.20 194.85 191.26 196.78
  C 188.89 201.66 185.10 205.76 180.43 208.60
  Q 160.93 220.47 139.06 214.31
  Q 124.84 210.30 109.95 201.84
  Q 107.20 200.28 105.07 198.13
  Q 103.58 196.63 105.23 195.31
  Q 115.52 187.00 127.27 180.31
  Q 135.08 175.87 143.89 173.44
  C 150.47 171.63 158.74 171.49 165.33 172.42
  Q 169.98 173.08 175.31 175.10
  Q 185.82 179.09 191.51 187.47
  Q 192.02 188.21 192.91 188.13
  Z
  M 160.46 183.05
  Q 162.30 182.69 163.96 183.40
  Q 169.39 185.70 174.83 188.75
  Q 177.95 190.50 181.00 189.65
  A 0.70 0.69 70.3 0 0 181.45 188.69
  Q 180.71 187.09 179.29 186.18
  Q 164.68 176.88 148.80 180.59
  Q 142.10 182.15 134.03 186.71
  Q 126.92 190.74 119.97 195.60
  A 0.80 0.80 0.0 0 0 120.08 196.97
  L 135.91 204.52
  Q 136.43 204.78 136.74 204.28
  Q 139.05 200.66 142.08 197.65
  Q 143.02 196.72 141.69 196.79
  Q 136.87 197.06 131.43 197.04
  Q 129.61 197.04 128.32 195.88
  A 1.00 1.00 0.0 0 1 128.47 194.28
  Q 129.81 193.45 131.30 193.24
  Q 136.54 192.50 141.69 192.16
  Q 143.19 192.06 141.93 191.23
  Q 139.71 189.76 137.90 188.18
  Q 135.67 186.23 138.64 186.29
  C 140.04 186.31 141.88 187.23 143.03 188.03
  C 146.08 190.18 151.68 192.96 155.16 191.17
  A 0.48 0.48 0.0 0 0 155.23 190.35
  Q 151.84 187.82 148.78 185.59
  Q 147.70 184.80 148.07 183.49
  A 0.60 0.60 0.0 0 1 148.88 183.10
  Q 155.07 185.67 159.62 188.93
  C 161.95 190.60 165.22 190.69 167.91 190.28
  Q 169.57 190.03 168.16 189.13
  L 160.25 184.13
  A 0.59 0.59 0.0 0 1 160.46 183.05
  Z
  M 148.47 204.81
  A 0.46 0.45 -53.1 0 1 148.37 204.09
  L 155.33 197.05
  A 0.62 0.62 0.0 0 0 154.89 196.00
  C 148.74 196.01 144.38 200.63 139.40 204.03
  A 0.99 0.98 35.8 0 0 139.69 205.79
  Q 145.33 207.41 151.37 207.91
  Q 168.53 209.36 180.91 197.77
  Q 181.85 196.89 182.20 195.62
  Q 182.37 194.99 181.71 194.99
  Q 176.39 195.01 172.55 198.28
  Q 167.73 202.38 161.62 204.71
  A 0.43 0.42 -1.8 0 1 161.06 204.19
  Q 161.25 203.57 161.73 203.07
  Q 165.25 199.43 169.22 196.66
  Q 170.05 196.08 169.04 195.97
  Q 166.47 195.69 164.07 196.00
  Q 161.85 196.29 159.46 198.49
  C 156.79 200.95 153.20 203.77 149.62 204.93
  Q 149.02 205.12 148.47 204.81
  Z"
/>
<path fill="#ffffff" d="
  M 280.72 222.83
  L 271.63 213.35
  Q 271.14 212.85 271.68 212.41
  L 276.25 208.68
  A 0.77 0.76 48.7 0 1 277.29 208.75
  Q 280.79 212.52 284.76 216.96
  C 285.55 217.84 286.50 218.20 287.67 217.89
  C 292.88 216.52 297.91 217.32 303.11 218.60
  C 314.47 221.41 324.64 229.66 330.85 239.25
  Q 336.71 248.31 340.32 260.74
  Q 343.54 271.84 345.32 282.54
  Q 345.93 286.22 342.28 285.61
  Q 328.41 283.29 314.89 277.60
  C 299.50 271.14 287.47 261.59 281.90 245.68
  C 279.31 238.29 277.51 231.65 280.91 223.89
  Q 281.17 223.30 280.72 222.83
  Z
  M 326.37 254.96
  L 320.72 254.95
  Q 319.40 254.94 320.36 255.85
  Q 324.85 260.08 328.76 265.35
  Q 329.07 265.76 328.98 266.27
  C 328.80 267.36 327.51 268.17 326.47 267.66
  C 323.17 266.04 319.38 261.63 317.05 258.88
  Q 316.00 257.64 316.00 259.26
  L 315.99 268.24
  Q 315.99 268.73 316.45 268.88
  Q 324.53 271.55 332.44 273.89
  Q 333.05 274.08 333.68 274.02
  Q 334.54 273.95 334.32 273.11
  Q 332.15 265.18 330.06 257.62
  C 329.84 256.81 329.28 256.22 329.09 255.42
  C 326.72 245.24 319.39 236.28 310.70 230.63
  Q 302.79 225.49 294.21 225.30
  Q 292.11 225.25 293.39 226.92
  C 294.71 228.65 297.01 230.03 299.16 230.59
  Q 303.04 231.61 306.95 232.77
  C 308.95 233.36 310.76 234.41 312.61 235.30
  A 0.55 0.54 48.7 0 1 312.55 236.31
  Q 311.48 236.67 310.26 236.54
  Q 306.14 236.13 302.66 235.19
  Q 300.94 234.72 301.97 236.17
  Q 305.00 240.42 309.79 241.00
  C 313.73 241.48 317.55 242.53 321.32 244.03
  A 0.77 0.77 0.0 0 1 321.70 245.14
  Q 321.35 245.73 320.60 245.75
  Q 318.49 245.79 316.56 245.72
  C 314.88 245.66 313.23 245.17 311.55 244.92
  Q 310.81 244.82 311.21 245.45
  Q 314.18 250.17 318.70 250.91
  C 321.51 251.37 324.14 252.36 326.82 253.26
  Q 327.32 253.43 327.35 253.96
  Q 327.36 254.20 327.25 254.42
  Q 326.97 254.96 326.37 254.96
  Z
  M 306.92 257.30
  Q 306.61 263.12 304.79 257.59
  C 303.84 254.68 303.13 251.41 302.95 248.29
  Q 302.66 243.09 297.73 239.89
  Q 297.11 239.49 296.98 240.21
  Q 296.81 241.07 297.05 241.89
  Q 298.10 245.56 297.82 249.10
  Q 297.52 252.90 296.04 249.39
  Q 294.23 245.12 293.68 240.47
  C 293.21 236.41 291.71 232.34 287.98 230.21
  A 0.44 0.43 15.2 0 0 287.33 230.58
  Q 287.25 234.74 288.19 239.05
  C 290.88 251.42 301.92 262.10 312.99 267.26
  Q 313.93 267.70 313.99 266.67
  C 314.05 265.64 313.42 264.48 313.18 263.42
  Q 312.50 260.48 312.21 257.47
  C 311.94 254.66 310.18 252.02 308.19 250.17
  Q 306.86 248.94 306.94 250.75
  Q 307.09 254.07 306.92 257.30
  Z"
/>
<path fill="#ffffff" d="
  M 214.58 226.81
  Q 217.39 235.20 215.02 244.00
  Q 209.14 265.87 189.15 276.92
  Q 176.51 283.91 162.97 287.37
  Q 158.07 288.62 153.14 289.66
  A 1.38 1.37 77.0 0 1 151.52 288.64
  Q 150.91 286.14 151.36 283.61
  Q 153.31 272.53 155.99 262.44
  Q 157.97 254.97 161.95 247.33
  Q 173.20 225.67 196.34 220.27
  Q 201.83 218.99 207.58 220.42
  A 2.13 2.12 28.2 0 0 209.65 219.80
  L 217.36 211.47
  A 1.47 1.47 0.0 0 1 219.34 211.30
  L 222.89 214.03
  Q 223.86 214.78 223.04 215.69
  L 215.03 224.64
  A 2.20 2.19 56.9 0 0 214.58 226.81
  Z
  M 174.75 249.11
  Q 172.46 248.48 174.58 247.41
  Q 179.45 244.94 186.20 243.86
  Q 190.82 243.12 193.54 238.85
  A 0.40 0.40 0.0 0 0 193.17 238.24
  C 190.97 238.40 188.00 238.66 185.91 239.60
  Q 184.54 240.21 183.63 240.08
  Q 180.45 239.64 183.30 238.15
  Q 188.82 235.27 195.27 233.83
  Q 200.13 232.75 202.02 228.47
  A 0.53 0.53 0.0 0 0 201.49 227.73
  Q 195.87 228.26 190.73 230.48
  Q 180.32 234.97 173.35 244.38
  Q 168.92 250.37 166.24 259.46
  Q 163.53 268.71 161.84 276.83
  A 0.75 0.75 0.0 0 0 162.79 277.70
  Q 167.91 276.23 173.37 274.43
  Q 176.00 273.56 177.85 272.50
  Q 180.15 271.19 182.53 270.29
  C 194.77 265.66 205.19 253.01 207.34 240.32
  Q 207.91 236.99 208.08 233.87
  A 0.85 0.85 0.0 0 0 206.73 233.13
  Q 202.42 236.28 202.06 241.98
  C 201.81 245.86 200.44 249.75 199.15 253.43
  A 0.82 0.81 -74.4 0 1 198.22 253.96
  Q 197.46 253.81 197.45 252.99
  Q 197.38 247.57 198.34 243.01
  A 0.30 0.29 -8.1 0 0 197.91 242.69
  C 192.15 245.90 192.45 251.31 191.74 257.02
  Q 191.39 259.82 189.69 263.07
  Q 189.40 263.62 189.04 263.10
  C 187.73 261.18 188.23 256.97 188.50 254.51
  Q 188.79 251.76 186.92 253.79
  Q 184.44 256.49 183.71 260.51
  Q 182.90 265.02 181.94 269.31
  A 1.23 1.23 0.0 0 1 179.79 269.82
  Q 179.25 269.16 179.25 268.36
  Q 179.25 265.49 179.21 262.68
  Q 179.19 261.89 178.68 262.48
  Q 174.95 266.79 170.12 270.92
  Q 169.55 271.41 168.85 271.38
  A 1.56 1.56 0.0 0 1 167.41 269.40
  C 168.43 265.76 172.47 262.04 175.21 259.42
  A 0.54 0.54 0.0 0 0 174.80 258.49
  Q 171.69 258.69 168.93 258.52
  Q 168.15 258.47 168.08 257.73
  A 1.07 1.05 -13.2 0 1 168.75 256.67
  Q 172.37 255.23 175.94 254.58
  C 179.50 253.93 182.02 252.02 184.00 249.15
  Q 185.14 247.48 183.21 248.08
  C 180.73 248.84 177.44 249.84 174.75 249.11
  Z"
/>
<circle fill="#ffffff" cx="204.28" cy="323.68" r="10.78"/>
<circle fill="#ffffff" cx="229.62" cy="323.66" r="10.76"/>
<circle fill="#ffffff" cx="278.99" cy="323.67" r="10.78"/>
<circle fill="#ffffff" cx="304.48" cy="323.67" r="10.76"/>
<circle fill="#ffffff" cx="443.93" cy="323.67" r="10.78"/>
<path fill="#ffffff" d="
  M 378.95 393.91
  Q 379.17 395.79 381.07 395.79
  Q 403.06 395.70 422.53 395.75
  C 428.97 395.76 432.93 392.00 433.92 385.79
  C 434.91 379.62 436.38 366.65 429.51 363.49
  C 426.61 362.16 422.84 361.17 422.91 357.13
  Q 423.01 351.87 428.20 348.55
  Q 436.39 343.31 448.06 345.80
  C 456.59 347.62 458.51 359.09 458.47 366.07
  Q 458.38 381.07 457.56 390.58
  Q 456.82 399.03 451.49 407.21
  Q 446.03 415.58 436.79 418.54
  C 431.07 420.37 423.31 419.89 417.00 419.89
  Q 279.02 419.94 142.75 419.77
  Q 138.88 419.77 135.35 419.55
  A 4.62 4.61 1.8 0 1 131.02 414.94
  Q 131.04 396.64 131.00 377.34
  C 130.99 375.19 130.55 372.16 130.02 370.51
  C 129.12 367.68 125.66 362.86 122.12 364.68
  Q 117.69 366.96 117.62 371.40
  Q 117.38 387.95 117.64 405.19
  C 117.74 412.17 116.73 417.63 113.91 423.85
  C 111.09 430.07 106.77 434.40 99.66 434.84
  C 96.11 435.06 92.94 435.87 89.21 435.97
  Q 77.59 436.29 72.54 435.67
  Q 53.93 433.37 43.66 417.77
  Q 40.68 413.24 38.89 408.20
  Q 37.01 402.94 36.61 397.58
  Q 35.56 383.67 39.62 370.44
  Q 41.70 363.64 45.56 358.89
  C 54.26 348.21 70.37 355.84 69.23 369.03
  Q 69.04 371.27 67.28 374.04
  Q 65.82 376.34 64.41 378.65
  Q 60.94 384.30 60.14 390.72
  C 59.20 398.25 61.80 405.88 68.54 409.52
  Q 71.48 411.11 75.49 411.19
  C 80.21 411.28 84.59 411.80 87.76 407.54
  C 89.41 405.31 90.70 402.74 91.36 400.01
  C 92.79 394.15 94.87 388.14 94.54 382.05
  Q 93.96 371.36 93.93 360.65
  C 93.90 348.83 101.74 343.03 112.85 342.26
  Q 124.46 341.46 129.98 342.42
  Q 144.25 344.92 150.31 357.96
  Q 153.00 363.77 153.51 368.83
  Q 154.21 375.93 153.95 388.17
  Q 153.88 391.65 156.02 394.48
  A 1.78 1.71 -9.9 0 0 156.94 395.10
  C 158.01 395.39 159.06 395.80 160.18 395.79
  Q 176.98 395.72 193.83 395.68
  C 200.61 395.67 204.63 390.47 205.24 383.97
  C 205.63 379.86 206.82 368.56 203.89 365.88
  C 201.62 363.79 199.39 361.61 200.54 358.16
  C 202.87 351.14 209.12 346.05 216.71 347.17
  C 226.76 348.65 230.09 357.45 230.16 366.40
  C 230.23 375.57 230.20 384.25 228.28 392.56
  A 2.19 2.19 0.0 0 0 229.57 395.08
  Q 231.63 395.94 234.17 395.90
  Q 252.14 395.67 269.50 395.54
  C 276.23 395.48 279.62 389.28 280.14 383.27
  Q 280.83 375.31 280.28 367.09
  Q 280.23 366.38 279.74 365.88
  Q 276.66 362.75 277.32 359.01
  C 278.40 352.87 283.41 348.75 289.83 348.71
  C 298.28 348.67 304.88 352.63 304.95 361.88
  C 305.04 371.88 305.67 382.35 303.03 391.98
  Q 302.04 395.61 306.35 395.65
  Q 322.56 395.80 343.87 395.72
  C 351.50 395.69 354.98 390.80 355.87 383.60
  Q 356.73 376.68 356.38 371.06
  C 356.07 365.97 349.97 365.34 350.03 359.90
  Q 350.12 353.41 355.89 350.55
  C 359.98 348.52 365.45 348.87 369.93 349.28
  Q 373.43 349.60 375.36 351.57
  Q 380.69 357.02 380.85 364.96
  Q 381.06 375.79 380.14 385.50
  C 379.87 388.33 378.63 391.17 378.95 393.91
  Z"
/>
<circle fill="#ffffff" cx="360.88" cy="440.91" r="10.79"/>
<circle fill="#ffffff" cx="77.07" cy="456.58" r="10.77"/>
<circle fill="#ffffff" cx="102.45" cy="456.60" r="10.77"/>
</svg>
