<svg width="27" height="26" viewBox="0 0 27 26" fill="none" xmlns="http://www.w3.org/2000/svg">
<path id="Vector" fill-rule="evenodd" clip-rule="evenodd" d="M7.973 3H19.277C20.013 3.00005 20.7234 3.27069 21.2729 3.76043C21.8223 4.25016 22.1726 4.92481 22.257 5.656L23.873 19.656C23.9215 20.0762 23.8806 20.5019 23.753 20.9051C23.6254 21.3084 23.4139 21.6801 23.1325 21.9959C22.8511 22.3117 22.5061 22.5644 22.1201 22.7375C21.7342 22.9105 21.316 23 20.893 23H6.357C5.93402 23 5.51583 22.9105 5.12987 22.7375C4.74391 22.5644 4.39891 22.3117 4.1175 21.9959C3.83609 21.6801 3.62464 21.3084 3.49702 20.9051C3.3694 20.5019 3.3285 20.0762 3.377 19.656L4.993 5.656C5.0774 4.92481 5.42766 4.25016 5.97714 3.76043C6.52661 3.27069 7.23695 3.00005 7.973 3ZM2.013 5.312C2.1818 3.84962 2.88232 2.50032 3.98127 1.52086C5.08022 0.541387 6.50091 0.000104064 7.973 0H19.277C20.7491 0.000104064 22.1698 0.541387 23.2687 1.52086C24.3677 2.50032 25.0682 3.84962 25.237 5.312L26.853 19.312C26.95 20.1524 26.8682 21.0038 26.613 21.8103C26.3577 22.6168 25.9348 23.3603 25.372 23.9918C24.8092 24.6234 24.1192 25.1288 23.3473 25.4749C22.5753 25.821 21.739 25.9999 20.893 26H6.357C5.51104 25.9999 4.67466 25.821 3.90274 25.4749C3.13082 25.1288 2.44081 24.6234 1.878 23.9918C1.31518 23.3603 0.892273 22.6168 0.637035 21.8103C0.381797 21.0038 0.299995 20.1524 0.396998 19.312L2.013 5.312ZM7.625 7.5C7.625 7.10218 7.78303 6.72064 8.06434 6.43934C8.34564 6.15804 8.72717 6 9.125 6C9.52282 6 9.90436 6.15804 10.1857 6.43934C10.467 6.72064 10.625 7.10218 10.625 7.5V8C10.625 8.79565 10.9411 9.55871 11.5037 10.1213C12.0663 10.6839 12.8294 11 13.625 11C14.4206 11 15.1837 10.6839 15.7463 10.1213C16.3089 9.55871 16.625 8.79565 16.625 8V7.5C16.625 7.10218 16.783 6.72064 17.0643 6.43934C17.3456 6.15804 17.7272 6 18.125 6C18.5228 6 18.9044 6.15804 19.1857 6.43934C19.467 6.72064 19.625 7.10218 19.625 7.5V8C19.625 9.5913 18.9929 11.1174 17.8676 12.2426C16.7424 13.3679 15.2163 14 13.625 14C12.0337 14 10.5076 13.3679 9.38236 12.2426C8.25714 11.1174 7.625 9.5913 7.625 8V7.5Z" fill="white"/>
</svg>
