<svg width="24" height="24" viewBox="0 0 24 24" fill="none" xmlns="http://www.w3.org/2000/svg">
<g id="search 1">
<path id="Union" fill-rule="evenodd" clip-rule="evenodd" d="M20 11C20 7.13401 16.866 4 13 4C9.13401 4 6 7.13401 6 11C6 12.886 6.74585 14.5978 7.95868 15.8565C7.99288 15.8828 8.02576 15.9116 8.05708 15.9429C8.08841 15.9742 8.11722 16.0071 8.14352 16.0413C9.40222 17.2541 11.114 18 13 18C16.866 18 20 14.866 20 11ZM7.3823 18.0319C8.92197 19.2635 10.875 20 13 20C17.9706 20 22 15.9706 22 11C22 6.02944 17.9706 2 13 2C8.02944 2 4 6.02944 4 11C4 13.125 4.73647 15.078 5.96809 16.6177L2.29287 20.2929C1.90234 20.6834 1.90234 21.3166 2.29287 21.7071C2.68339 22.0976 3.31656 22.0976 3.70708 21.7071L7.3823 18.0319Z" fill="#7878AB"/>
</g>
</svg>
