<svg width="18" height="17" viewBox="0 0 18 17" fill="none" xmlns="http://www.w3.org/2000/svg">
<path id="Star 2" d="M7.38801 1.7444C8.04987 0.412301 9.95013 0.412301 10.612 1.7444L11.8274 4.19062C12.0895 4.71813 12.5931 5.08403 13.1758 5.17029L15.8779 5.57029C17.3493 5.78812 17.9365 7.59538 16.8741 8.63648L14.9232 10.5483C14.5025 10.9606 14.3102 11.5526 14.4082 12.1335L14.8628 14.8269C15.1103 16.2936 13.5729 17.4106 12.2545 16.7219L9.83336 15.4573C9.31125 15.1846 8.68875 15.1846 8.16664 15.4573L5.7455 16.7219C4.42706 17.4106 2.88971 16.2936 3.13724 14.8269L3.59181 12.1335C3.68983 11.5526 3.49747 10.9606 3.07676 10.5483L1.12585 8.63648C0.063477 7.59538 0.650692 5.78812 2.12212 5.57029L4.82419 5.17029C5.40688 5.08403 5.9105 4.71813 6.1726 4.19062L7.38801 1.7444Z" fill="#3F5B4D"/>
</svg>
